#N canvas 1280 49 1360 715 10;
#X obj 1079 -105 vsl 15 128 0 2000 0 0 empty empty empty 0 -9 0 10
-262144 -1 -1 8700 1;
#X obj 1115 175 vsl 15 128 0 0.3 0 0 empty empty empty 0 -9 0 10 -262144
-1 -1 5300 1;
#X text 1108 155 amp;
#X obj 59 -100 bng 15 250 50 0 empty empty empty 17 7 0 10 -262144
-1 -1;
#X obj 854 -113 vsl 15 128 0 2000 0 0 empty empty empty 0 -9 0 10 -262144
-1 -1 6300 1;
#X obj 929 -113 vsl 15 128 0 2000 0 0 empty empty empty 0 -9 0 10 -262144
-1 -1 6000 1;
#X floatatom 854 31 5 0 0 0 - - -;
#X floatatom 929 30 5 0 0 0 - - -;
#X text 843 -132 attack;
#X text 923 -132 decay;
#X obj 1169 -99 vsl 15 128 0.5 6 0 0 empty empty empty 0 -9 0 10 -262144
-1 -1 3100 1;
#X text 1002 -61;
#X floatatom 1079 37 5 0 0 0 - - -;
#X floatatom 1162 47 5 0 0 0 - - -;
#X floatatom 1106 324 5 0 0 0 - - -;
#X obj 1012 -117 vsl 15 128 0 3000 0 0 empty empty empty 0 -9 0 10
-262144 -1 -1 6700 1;
#X floatatom 1020 27 5 0 0 0 - - -;
#X obj 761 167 vsl 15 128 22.5 440 0 0 empty empty empty 0 -9 0 10
-262144 -1 -1 7800 1;
#X obj 829 161 vsl 15 128 0 1 0 0 empty empty empty 0 -9 0 10 -262144
-1 -1 5300 1;
#X floatatom 762 302 5 0 0 0 - - -;
#X floatatom 839 301 5 0 0 0 - - -;
#X text 751 141 pitch;
#X text 814 134 fatness;
#X text 1074 -123 freq;
#X text 1003 -137 range;
#X text 1147 -122 resonance;
#X obj 951 142 vsl 15 128 0 2000 0 0 empty empty empty 0 -9 0 10 -262144
-1 -1 4200 1;
#X obj 1031 179 vsl 15 128 0 2000 0 0 empty empty empty 0 -9 0 10 -262144
-1 -1 6000 1;
#X floatatom 1044 328 5 0 0 0 - - -;
#X floatatom 967 313 5 0 0 0 - - -;
#X text 938 141 attack;
#X text 1021 157 decay;
#X obj 764 324 s \$0-oscf;
#X obj 824 323 s \$0-oscfat;
#X obj 805 49 s \$0-fenva;
#X obj 894 54 s \$0-fenvd;
#X obj 1012 47 s \$0-frng;
#X obj 1097 60 s \$0-ffrq;
#X obj 1172 66 s \$0-fres;
#X obj 943 337 s \$0-attack;
#X obj 1047 366 s \$0-decay;
#X obj 1118 350 s \$0-amp;
#X obj -47 294 dac~;
#X text 263 182 filter;
#X text -7 245 loudness;
#X obj -48 244 *~ 0.2;
#X text 81 118 Sift?;
#X text -8 294 to soundcard;
#X obj -48 157 bp~ 100 3;
#X obj -48 192 hip~ 60;
#X text 6 187 high pass filter;
#N canvas 1789 292 724 291 envelope 0;
#X obj 251 173 line;
#X obj 214 35 t b b;
#X text 19 34 evaluate from right to left -->;
#X text 58 70 delay by attack time -->;
#X text 128 108 fire decay -->;
#X msg 214 127 0 \$1;
#X msg 251 127 1 \$1;
#X text 59 127 message substitution?-->;
#X text 19 93 floats store until triggered -->;
#X obj 214 -4 inlet;
#X obj 251 219 outlet;
#X text 163 183 comment;
#X text 92 176 comment;
#X text 60 134 comment;
#X obj 260 -4 inlet;
#X obj 304 -4 inlet;
#X obj 214 69 del 50;
#X obj 214 100 f 50;
#X obj 251 101 f 50;
#X connect 0 0 10 0;
#X connect 1 0 16 0;
#X connect 1 1 18 0;
#X connect 5 0 0 0;
#X connect 6 0 0 0;
#X connect 9 0 1 0;
#X connect 14 0 16 1;
#X connect 14 0 18 1;
#X connect 15 0 17 1;
#X connect 16 0 17 0;
#X connect 17 0 5 0;
#X connect 18 0 6 0;
#X restore 98 -17 pd envelope;
#X obj 261 213 + 20;
#X obj 261 185 * 3000;
#N canvas 1335 111 450 300 fat_oscillator 1;
#X obj 89 8 inlet pitch;
#X obj 186 9 inlet fatness;
#X obj 146 266 outlet~;
#X obj 146 239 +~;
#X obj 90 198 -~ 0.5;
#X obj 185 198 -~ 0.5;
#X obj 89 160 phasor~ 55;
#X obj 186 159 phasor~ 55;
#X obj 89 120 -;
#X obj 186 121 +;
#X obj 186 69 t b b f f;
#X obj 186 38 * 5;
#X connect 0 0 8 0;
#X connect 0 0 9 0;
#X connect 1 0 11 0;
#X connect 3 0 2 0;
#X connect 4 0 3 0;
#X connect 5 0 3 1;
#X connect 6 0 4 0;
#X connect 7 0 5 0;
#X connect 8 0 6 0;
#X connect 9 0 7 0;
#X connect 10 0 8 0;
#X connect 10 1 9 0;
#X connect 10 2 8 1;
#X connect 10 3 9 1;
#X connect 11 0 10 0;
#X restore -49 102 pd fat_oscillator;
#X obj 261 155 t b f;
#X obj 353 162 t b f;
#N canvas 1770 289 724 291 envelope 1;
#X obj 251 173 line;
#X obj 214 35 t b b;
#X obj 214 69 del;
#X obj 214 100 f;
#X obj 251 101 f;
#X text 19 34 evaluate from right to left -->;
#X text 58 70 delay by attack time -->;
#X text 128 108 fire decay -->;
#X msg 214 127 0 \$1;
#X msg 251 127 1 \$1;
#X text 59 127 message substitution?-->;
#X text 19 93 floats store until triggered -->;
#X obj 214 -4 inlet;
#X obj 251 219 outlet;
#X text 163 183 comment;
#X text 92 176 comment;
#X text 60 134 comment;
#X obj 260 -4 inlet;
#X obj 304 -4 inlet;
#X connect 0 0 13 0;
#X connect 1 0 2 0;
#X connect 1 1 4 0;
#X connect 2 0 3 0;
#X connect 3 0 8 0;
#X connect 4 0 9 0;
#X connect 8 0 0 0;
#X connect 9 0 0 0;
#X connect 12 0 1 0;
#X connect 17 0 2 1;
#X connect 17 0 4 1;
#X connect 18 0 3 1;
#X restore 261 239 pd envelope;
#X obj 61 -58 t b b;
#X obj -48 219 *~;
#X obj -57 83 r \$0-oscf;
#X obj 3 82 r \$0-oscfat;
#X obj 129 -58 r \$0-fenva;
#X obj 208 -57 r \$0-fenvd;
#X obj 261 120 r \$0-frng;
#X obj 353 119 r \$0-ffrq;
#X obj 434 121 r \$0-fres;
#X obj 285 281 r \$0-attack;
#X obj 362 281 r \$0-decay;
#X obj 433 281 r \$0-amp;
#X connect 0 0 12 0;
#X connect 0 0 37 0;
#X connect 1 0 14 0;
#X connect 1 0 41 0;
#X connect 3 0 58 0;
#X connect 4 0 6 0;
#X connect 4 0 34 0;
#X connect 5 0 7 0;
#X connect 5 0 35 0;
#X connect 10 0 13 0;
#X connect 10 0 38 0;
#X connect 15 0 16 0;
#X connect 15 0 36 0;
#X connect 17 0 19 0;
#X connect 17 0 32 0;
#X connect 18 0 20 0;
#X connect 18 0 33 0;
#X connect 26 0 29 0;
#X connect 26 0 39 0;
#X connect 27 0 28 0;
#X connect 27 0 40 0;
#X connect 45 0 42 0;
#X connect 45 0 42 1;
#X connect 48 0 49 0;
#X connect 49 0 59 0;
#X connect 51 0 53 0;
#X connect 52 0 48 1;
#X connect 53 0 52 0;
#X connect 54 0 48 0;
#X connect 55 0 53 0;
#X connect 55 1 53 1;
#X connect 56 0 52 0;
#X connect 56 1 52 1;
#X connect 57 0 59 1;
#X connect 58 0 57 0;
#X connect 58 1 51 0;
#X connect 59 0 45 0;
#X connect 60 0 54 0;
#X connect 61 0 54 1;
#X connect 62 0 51 1;
#X connect 63 0 51 2;
#X connect 64 0 55 0;
#X connect 65 0 56 0;
#X connect 66 0 48 2;
#X connect 67 0 57 1;
#X connect 68 0 57 2;
#X connect 69 0 45 1;
