#N canvas 1280 49 1360 715 10;
#X obj 103 425 dac~;
#X text 162 288 filter;
#X text 143 376 loudness;
#X obj 102 375 *~ 0.2;
#X text 190 218 Sift?;
#X text 142 425 to soundcard;
#X obj 553 7 vsl 15 128 0 2000 0 0 empty empty empty 0 -9 0 10 -262144
-1 -1 8700 1;
#X obj 721 11 vsl 15 128 0 0.3 0 0 empty empty empty 0 -9 0 10 -262144
-1 -1 9300 1;
#X text 720 -12 amp;
#X obj 102 288 bp~ 100 3;
#X obj 202 48 bng 15 250 50 0 empty empty empty 17 7 0 10 -262144 -1
-1;
#X obj 404 1 vsl 15 128 0 2000 0 0 empty empty empty 0 -9 0 10 -262144
-1 -1 3100 1;
#X obj 460 1 vsl 15 128 0 2000 0 0 empty empty empty 0 -9 0 10 -262144
-1 -1 400 1;
#X floatatom 404 145 5 0 0 0 - - -;
#X floatatom 460 144 5 0 0 0 - - -;
#X text 393 -18 attack;
#X text 454 -18 decay;
#X obj 102 341 hip~ 60;
#X text 152 340 high pass filter;
#N canvas 1774 295 724 291 envelope 1;
#X obj 251 173 line;
#X obj 214 35 t b b;
#X obj 214 69 del;
#X obj 214 100 f;
#X obj 251 101 f;
#X text 19 34 evaluate from right to left -->;
#X text 58 70 delay by attack time -->;
#X text 128 108 fire decay -->;
#X msg 214 127 0 \$1;
#X msg 251 127 1 \$1;
#X text 59 127 message substitution?-->;
#X text 19 93 floats store until triggered -->;
#X obj 214 -4 inlet;
#X obj 251 219 outlet;
#X text 163 183;
#X text 92 176;
#X text 60 134;
#X obj 260 -4 inlet;
#X obj 304 -4 inlet;
#X connect 0 0 13 0;
#X connect 1 0 2 0;
#X connect 1 1 4 0;
#X connect 2 0 3 0;
#X connect 3 0 8 0;
#X connect 4 0 9 0;
#X connect 8 0 0 0;
#X connect 9 0 0 0;
#X connect 12 0 1 0;
#X connect 17 0 2 1;
#X connect 17 0 4 1;
#X connect 18 0 3 1;
#X restore 202 77 pd envelope;
#X obj 260 213 + 20;
#X obj 260 185 * 3000;
#X obj 643 13 vsl 15 128 0.5 6 0 0 empty empty empty 0 -9 0 10 -262144
-1 -1 3100 1;
#X text 494 58;
#X floatatom 553 149 5 0 0 0 - - -;
#X floatatom 636 159 5 0 0 0 - - -;
#X floatatom 718 161 5 0 0 0 - - -;
#X obj 504 3 vsl 15 128 0 3000 0 0 empty empty empty 0 -9 0 10 -262144
-1 -1 6700 1;
#X floatatom 504 145 5 0 0 0 - - -;
#N canvas 1337 114 450 300 fat_oscillator 1;
#X obj 89 8 inlet pitch;
#X obj 186 9 inlet fatness;
#X obj 146 266 outlet~;
#X obj 146 239 +~;
#X obj 90 198 -~ 0.5;
#X obj 185 198 -~ 0.5;
#X obj 89 160 phasor~ 55;
#X obj 186 159 phasor~ 55;
#X obj 89 120 -;
#X obj 186 121 +;
#X obj 186 69 t b b f f;
#X obj 186 38 * 5;
#X connect 0 0 8 0;
#X connect 0 0 9 0;
#X connect 1 0 11 0;
#X connect 3 0 2 0;
#X connect 4 0 3 0;
#X connect 5 0 3 1;
#X connect 6 0 4 0;
#X connect 7 0 5 0;
#X connect 8 0 6 0;
#X connect 9 0 7 0;
#X connect 10 0 8 0;
#X connect 10 1 9 0;
#X connect 10 2 8 1;
#X connect 10 3 9 1;
#X connect 11 0 10 0;
#X restore 60 202 pd fat_oscillator;
#X obj 49 -4 vsl 15 128 22.5 440 0 0 empty empty empty 0 -9 0 10 -262144
-1 -1 3100 1;
#X obj 117 -1 vsl 15 128 0 1 0 0 empty empty empty 0 -9 0 10 -262144
-1 -1 1600 1;
#X floatatom 50 140 5 0 0 0 - - -;
#X floatatom 127 139 5 0 0 0 - - -;
#X text 39 -21 pitch;
#X text 102 -28 fatness;
#X obj 472 185 t b f;
#X obj 530 183 t b f;
#X text 548 -11 freq;
#X text 495 -21 range;
#X text 621 -10 resonance;
#X connect 3 0 0 0;
#X connect 3 0 0 1;
#X connect 6 0 37 0;
#X connect 6 0 24 0;
#X connect 7 0 3 1;
#X connect 7 0 26 0;
#X connect 9 0 17 0;
#X connect 10 0 19 0;
#X connect 11 0 13 0;
#X connect 11 0 19 1;
#X connect 12 0 14 0;
#X connect 12 0 19 2;
#X connect 17 0 3 0;
#X connect 19 0 21 0;
#X connect 20 0 9 1;
#X connect 21 0 20 0;
#X connect 22 0 25 0;
#X connect 22 0 9 2;
#X connect 27 0 28 0;
#X connect 27 0 36 0;
#X connect 29 0 9 0;
#X connect 30 0 32 0;
#X connect 30 0 29 0;
#X connect 31 0 33 0;
#X connect 31 0 29 1;
#X connect 36 0 21 0;
#X connect 36 1 21 1;
#X connect 37 0 20 0;
#X connect 37 1 20 1;
